<svg width="22" height="16" viewBox="0 0 22 16" fill="none" xmlns="http://www.w3.org/2000/svg">
<path d="M7.85542 0C7.90235 0 7.94929 0 7.99576 0C8.01689 0.0408939 8.03848 0.0817878 8.0596 0.122682C8.25205 0.49716 8.25205 0.497619 7.82866 0.6033C6.37355 0.966291 5.08367 1.64035 3.94024 2.5901C3.88626 2.63513 3.81162 2.67097 3.80036 2.77711C8.60128 0.359774 13.3909 0.361153 18.2125 2.78814C18.1435 2.65075 18.0618 2.60251 17.9924 2.54323C16.9057 1.61784 15.6501 1.01086 14.2692 0.636383C13.7359 0.492105 13.7383 0.484294 13.9913 0C14.0537 0 14.1161 0 14.1786 0C14.2156 0.011487 14.2518 0.0284879 14.2898 0.0335422C15.7308 0.218713 17.0315 0.76274 18.2735 1.48321C18.7988 1.78784 19.1658 2.18622 19.4404 2.71738C20.7646 5.27531 21.4574 8.00785 21.8146 10.8355C21.8864 11.4034 21.939 11.9741 22 12.5434C22 12.6201 22 12.6964 22 12.7731C21.8484 12.9266 21.7024 13.0851 21.5452 13.2326C20.3008 14.3974 18.8189 15.116 17.1507 15.4878C16.6945 15.5893 16.2298 15.6348 15.7707 15.7138C15.6769 15.7138 15.5834 15.7138 15.4896 15.7138C15.2741 15.4322 15.0577 15.1514 14.8432 14.8688C14.671 14.6419 14.6766 14.6189 14.9427 14.521C15.7064 14.2398 16.4251 13.8736 17.0968 13.4201C17.7009 13.0121 18.2604 12.553 18.7392 11.9939C16.4166 13.6154 13.7941 14.2398 10.9928 14.2398C8.1915 14.2398 5.56949 13.6135 3.24601 11.9939C3.44879 12.2245 3.65297 12.4441 3.87734 12.6408C4.81893 13.4656 5.88163 14.0964 7.06543 14.5293C7.30247 14.6161 7.31045 14.6474 7.15649 14.8509C6.93823 15.1399 6.71668 15.4266 6.49606 15.7143C6.40219 15.7143 6.30878 15.7143 6.2149 15.7143C6.15435 15.701 6.09427 15.6817 6.03278 15.6757C5.14234 15.5916 4.28008 15.3885 3.44456 15.077C2.17111 14.6019 1.0488 13.903 0.129733 12.9064C0.0419567 12.8113 -0.00826798 12.7143 0.00111981 12.5779C0.143345 10.5575 0.453611 8.56429 1.01453 6.61286C1.452 5.09106 2.01245 3.6175 2.82027 2.24227C2.91885 2.07456 3.03478 1.92753 3.20095 1.81541C4.19793 1.14135 5.27143 0.626733 6.43692 0.296366C6.90443 0.164495 7.38321 0.0974102 7.85542 0ZM15.9655 8.84227C15.9646 8.43333 15.89 8.12043 15.7168 7.80338C15.122 6.71441 13.7594 6.57611 12.9553 7.5231C12.3156 8.27665 12.3639 9.55814 13.0586 10.2694C13.6758 10.9017 14.5578 10.9678 15.2511 10.4192C15.7604 10.0167 15.9683 9.47268 15.9655 8.84227ZM6.02339 8.8386C6.00978 9.33162 6.15529 9.77226 6.46837 10.1605C7.08984 10.9329 8.18587 10.9991 8.89417 10.3043C9.61422 9.59812 9.68603 8.32398 9.04907 7.54332C8.31589 6.64503 7.08421 6.67352 6.39843 7.6081C6.129 7.97431 6.01071 8.3883 6.02339 8.8386Z" fill="url(#paint0_linear_1_1061)"/>
<defs>
<linearGradient id="paint0_linear_1_1061" x1="11" y1="-7.43622" x2="11" y2="15.7143" gradientUnits="userSpaceOnUse">
<stop stop-color="#FEECE0"/>
<stop offset="1" stop-color="white"/>
</linearGradient>
</defs>
</svg>
