<svg width="24" height="24" viewBox="0 0 24 24" fill="none" xmlns="http://www.w3.org/2000/svg">
<path d="M8.85542 5C8.90235 5 8.94929 5 8.99576 5C9.01689 5.04089 9.03848 5.08179 9.0596 5.12268C9.25205 5.49716 9.25205 5.49762 8.82866 5.6033C7.37355 5.96629 6.08367 6.64035 4.94024 7.5901C4.88626 7.63513 4.81162 7.67097 4.80036 7.77711C9.60128 5.35977 14.3909 5.36115 19.2125 7.78814C19.1435 7.65075 19.0618 7.60251 18.9924 7.54323C17.9057 6.61784 16.6501 6.01086 15.2692 5.63638C14.7359 5.49211 14.7383 5.48429 14.9913 5C15.0537 5 15.1161 5 15.1786 5C15.2156 5.01149 15.2518 5.02849 15.2898 5.03354C16.7308 5.21871 18.0315 5.76274 19.2735 6.48321C19.7988 6.78784 20.1658 7.18622 20.4404 7.71738C21.7646 10.2753 22.4574 13.0079 22.8146 15.8355C22.8864 16.4034 22.939 16.9741 23 17.5434C23 17.6201 23 17.6964 23 17.7731C22.8484 17.9266 22.7024 18.0851 22.5452 18.2326C21.3008 19.3974 19.8189 20.116 18.1507 20.4878C17.6945 20.5893 17.2298 20.6348 16.7707 20.7138C16.6769 20.7138 16.5834 20.7138 16.4896 20.7138C16.2741 20.4322 16.0577 20.1514 15.8432 19.8688C15.671 19.6419 15.6766 19.6189 15.9427 19.521C16.7064 19.2398 17.4251 18.8736 18.0968 18.4201C18.7009 18.0121 19.2604 17.553 19.7392 16.9939C17.4166 18.6154 14.7941 19.2398 11.9928 19.2398C9.1915 19.2398 6.56949 18.6135 4.24601 16.9939C4.44879 17.2245 4.65297 17.4442 4.87734 17.6408C5.81893 18.4656 6.88163 19.0964 8.06543 19.5293C8.30247 19.6161 8.31045 19.6474 8.15649 19.8509C7.93823 20.1399 7.71668 20.4266 7.49606 20.7143C7.40219 20.7143 7.30878 20.7143 7.2149 20.7143C7.15435 20.701 7.09427 20.6817 7.03278 20.6757C6.14234 20.5916 5.28008 20.3885 4.44456 20.077C3.17111 19.6019 2.0488 18.903 1.12973 17.9064C1.04196 17.8113 0.991732 17.7143 1.00112 17.5779C1.14334 15.5575 1.45361 13.5643 2.01453 11.6129C2.452 10.0911 3.01245 8.6175 3.82027 7.24227C3.91885 7.07456 4.03478 6.92753 4.20095 6.81541C5.19793 6.14135 6.27143 5.62673 7.43692 5.29637C7.90443 5.16449 8.38321 5.09741 8.85542 5ZM16.9655 13.8423C16.9646 13.4333 16.89 13.1204 16.7168 12.8034C16.122 11.7144 14.7594 11.5761 13.9553 12.5231C13.3156 13.2766 13.3639 14.5581 14.0586 15.2694C14.6758 15.9017 15.5578 15.9678 16.2511 15.4192C16.7604 15.0167 16.9683 14.4727 16.9655 13.8423ZM7.02339 13.8386C7.00978 14.3316 7.15529 14.7723 7.46837 15.1605C8.08984 15.9329 9.18587 15.9991 9.89417 15.3043C10.6142 14.5981 10.686 13.324 10.0491 12.5433C9.31589 11.645 8.08421 11.6735 7.39843 12.6081C7.129 12.9743 7.01071 13.3883 7.02339 13.8386Z" fill="url(#paint0_linear_1_1059)"/>
<defs>
<linearGradient id="paint0_linear_1_1059" x1="12" y1="-2.43622" x2="12" y2="20.7143" gradientUnits="userSpaceOnUse">
<stop stop-color="#FEECE0"/>
<stop offset="1" stop-color="white"/>
</linearGradient>
</defs>
</svg>
