<svg width="24" height="24" viewBox="0 0 24 24" fill="none" xmlns="http://www.w3.org/2000/svg">
<path d="M20.8687 8.12679C21.4046 9.3477 21.6809 10.6667 21.6799 12C21.6799 17.3374 17.3375 21.68 12.0001 21.68C6.66268 21.68 2.32007 17.3373 2.32007 12C2.32007 6.66268 6.66268 2.32019 12.0001 2.32019C13.8151 2.3186 15.5934 2.83049 17.1298 3.79672L18.6899 2.04269C16.7141 0.708783 14.384 -0.00268709 12 7.6265e-06C5.38318 7.6265e-06 0 5.38308 0 12C0 18.6169 5.38329 24 12 24C18.6167 24 24 18.6167 24 12C24.0018 9.86676 23.4313 7.77209 22.3479 5.93443L20.8687 8.12679Z" fill="#B5B5B5"/>
<path d="M22.5012 1.53722C22.2333 1.299 21.8817 1.17693 21.5239 1.19787C21.166 1.2188 20.8311 1.38103 20.5928 1.64886L11.5811 11.7809L7.43463 7.91222C7.19292 7.68624 6.87713 7.55612 6.54639 7.54624C6.21565 7.53635 5.89265 7.64738 5.63789 7.85852C5.38312 8.06967 5.21407 8.36644 5.16239 8.69327C5.11071 9.0201 5.17994 9.35455 5.35713 9.634L9.88219 16.7836C10.0469 17.0416 10.2623 17.2634 10.5153 17.4356C11.5299 18.1201 12.9074 17.8526 13.5919 16.838L22.7232 3.30347C22.9062 3.03207 22.9846 2.70347 22.9438 2.37866C22.903 2.05385 22.7457 1.75487 22.5012 1.53722Z" fill="#B5B5B5"/>
</svg>
