<svg width="28" height="28" viewBox="0 0 28 28" fill="none" xmlns="http://www.w3.org/2000/svg">
<path d="M14.0044 0.666504C8.43783 0.666504 6.80983 0.672248 6.49337 0.698507C5.35103 0.793489 4.64018 0.973402 3.86577 1.35908C3.26896 1.65551 2.79827 1.99913 2.33375 2.48081C1.48775 3.35925 0.975028 4.43996 0.789422 5.72458C0.699182 6.34823 0.672931 6.47542 0.667599 9.66092C0.665548 10.7228 0.667599 12.1202 0.667599 13.9946C0.667599 19.5582 0.673751 21.185 0.700413 21.5009C0.792703 22.6128 0.967029 23.3124 1.33619 24.0776C2.0417 25.5423 3.38914 26.6419 4.97653 27.0522C5.52617 27.1937 6.13324 27.2717 6.91258 27.3086C7.24277 27.323 10.6083 27.3332 13.9759 27.3332C17.3434 27.3332 20.711 27.3291 21.033 27.3127C21.9354 27.2702 22.4594 27.1999 23.0388 27.0501C23.8259 26.8482 24.5594 26.4769 25.1882 25.962C25.8169 25.4472 26.3258 24.8013 26.6791 24.0693C27.0411 23.3226 27.2247 22.5964 27.3077 21.5426C27.3258 21.3128 27.3334 17.6495 27.3334 13.9911C27.3334 10.3322 27.3251 6.67564 27.3071 6.44587C27.223 5.37501 27.0395 4.65495 26.6658 3.89386C26.3592 3.27083 26.0187 2.80556 25.5245 2.32983C24.6426 1.48709 23.5638 0.974223 22.2781 0.788771C21.6552 0.698712 21.5312 0.672043 18.3441 0.666504H14.0044Z" fill="url(#paint0_radial_1_1430)"/>
<path d="M14.0044 0.666504C8.43783 0.666504 6.80983 0.672248 6.49337 0.698507C5.35103 0.793489 4.64018 0.973402 3.86577 1.35908C3.26896 1.65551 2.79827 1.99913 2.33375 2.48081C1.48775 3.35925 0.975028 4.43996 0.789422 5.72458C0.699182 6.34823 0.672931 6.47542 0.667599 9.66092C0.665548 10.7228 0.667599 12.1202 0.667599 13.9946C0.667599 19.5582 0.673751 21.185 0.700413 21.5009C0.792703 22.6128 0.967029 23.3124 1.33619 24.0776C2.0417 25.5423 3.38914 26.6419 4.97653 27.0522C5.52617 27.1937 6.13324 27.2717 6.91258 27.3086C7.24277 27.323 10.6083 27.3332 13.9759 27.3332C17.3434 27.3332 20.711 27.3291 21.033 27.3127C21.9354 27.2702 22.4594 27.1999 23.0388 27.0501C23.8259 26.8482 24.5594 26.4769 25.1882 25.962C25.8169 25.4472 26.3258 24.8013 26.6791 24.0693C27.0411 23.3226 27.2247 22.5964 27.3077 21.5426C27.3258 21.3128 27.3334 17.6495 27.3334 13.9911C27.3334 10.3322 27.3251 6.67564 27.3071 6.44587C27.223 5.37501 27.0395 4.65495 26.6658 3.89386C26.3592 3.27083 26.0187 2.80556 25.5245 2.32983C24.6426 1.48709 23.5638 0.974223 22.2781 0.788771C21.6552 0.698712 21.5312 0.672043 18.3441 0.666504H14.0044Z" fill="url(#paint1_radial_1_1430)"/>
<path d="M13.9986 4.1543C11.3251 4.1543 10.9895 4.16599 9.93947 4.21379C8.89146 4.26179 8.17611 4.42776 7.55018 4.67126C6.90271 4.92277 6.35348 5.25921 5.8063 5.80674C5.25871 6.35407 4.92236 6.90345 4.6701 7.55089C4.42605 8.1772 4.25992 8.89295 4.21275 9.94083C4.16599 10.9912 4.15369 11.327 4.15369 14.0013C4.15369 16.6755 4.16558 17.0101 4.21316 18.0605C4.26136 19.1088 4.42728 19.8243 4.67051 20.4504C4.92216 21.0981 5.2585 21.6475 5.80589 22.1948C6.35286 22.7425 6.90209 23.0798 7.54915 23.3313C8.17549 23.5748 8.89105 23.7408 9.93885 23.7888C10.9889 23.8366 11.3242 23.8483 13.9976 23.8483C16.6713 23.8483 17.0058 23.8366 18.0559 23.7888C19.1039 23.7408 19.8201 23.5748 20.4464 23.3313C21.0937 23.0798 21.6421 22.7425 22.1891 22.1948C22.7366 21.6475 23.073 21.0981 23.3253 20.4506C23.5673 19.8243 23.7334 19.1086 23.7826 18.0607C23.8298 17.0103 23.8421 16.6755 23.8421 14.0013C23.8421 11.327 23.8298 10.9914 23.7826 9.94104C23.7334 8.89274 23.5673 8.1772 23.3253 7.55109C23.073 6.90345 22.7366 6.35407 22.1891 5.80674C21.6415 5.259 21.0939 4.92257 20.4458 4.67126C19.8182 4.42776 19.1025 4.26179 18.0545 4.21379C17.0044 4.16599 16.6701 4.1543 13.9957 4.1543H13.9986ZM13.1155 5.9288C13.3776 5.92839 13.67 5.9288 13.9986 5.9288C16.627 5.9288 16.9386 5.93824 17.9765 5.98542C18.9363 6.02933 19.4573 6.18975 19.8043 6.32453C20.2637 6.50301 20.5912 6.71636 20.9356 7.061C21.2801 7.40565 21.4934 7.73388 21.6722 8.1934C21.807 8.5401 21.9676 9.06117 22.0112 10.0212C22.0584 11.0593 22.0687 11.3711 22.0687 13.999C22.0687 16.6269 22.0584 16.9388 22.0112 17.9768C21.9674 18.9369 21.807 19.4579 21.6722 19.8046C21.4938 20.2642 21.2801 20.5914 20.9356 20.9358C20.591 21.2804 20.2639 21.4938 19.8043 21.6723C19.4577 21.8077 18.9363 21.9677 17.9765 22.0116C16.9388 22.0588 16.627 22.069 13.9986 22.069C11.37 22.069 11.0584 22.0588 10.0207 22.0116C9.06086 21.9673 8.53994 21.8068 8.19272 21.6721C7.73332 21.4936 7.40518 21.2802 7.06063 20.9356C6.71608 20.591 6.50278 20.2635 6.32394 19.8038C6.1892 19.4571 6.02862 18.936 5.98493 17.976C5.93776 16.9379 5.92833 16.6261 5.92833 13.9966C5.92833 11.367 5.93776 11.0568 5.98493 10.0188C6.02882 9.05871 6.1892 8.53764 6.32394 8.19053C6.50237 7.73101 6.71608 7.40277 7.06063 7.05813C7.40518 6.71349 7.73332 6.50013 8.19272 6.32125C8.53973 6.18585 9.06086 6.02584 10.0207 5.98173C10.9288 5.9407 11.2808 5.92839 13.1155 5.92634V5.9288ZM19.2534 7.56381C19.0197 7.56381 18.7913 7.63312 18.5971 7.76298C18.4028 7.89284 18.2514 8.07741 18.162 8.29335C18.0726 8.50929 18.0492 8.7469 18.0948 8.97613C18.1404 9.20535 18.253 9.4159 18.4182 9.58114C18.5835 9.74638 18.794 9.85889 19.0232 9.90443C19.2524 9.94998 19.4899 9.92652 19.7058 9.83702C19.9216 9.74752 20.1061 9.59601 20.2358 9.40163C20.3656 9.20726 20.4348 8.97876 20.4347 8.74504C20.4347 8.09268 19.9056 7.5634 19.2534 7.5634V7.56381ZM13.9986 8.94444C11.2067 8.94444 8.94314 11.2086 8.94314 14.0013C8.94314 16.7939 11.2067 19.0571 13.9986 19.0571C16.7905 19.0571 19.0534 16.7939 19.0534 14.0013C19.0534 11.2086 16.7903 8.94444 13.9984 8.94444H13.9986ZM13.9986 10.7189C15.8108 10.7189 17.28 12.1884 17.28 14.0013C17.28 15.8139 15.8108 17.2836 13.9986 17.2836C12.1862 17.2836 10.7172 15.8139 10.7172 14.0013C10.7172 12.1884 12.1862 10.7189 13.9986 10.7189V10.7189Z" fill="white"/>
<defs>
<radialGradient id="paint0_radial_1_1430" cx="0" cy="0" r="1" gradientUnits="userSpaceOnUse" gradientTransform="translate(7.75005 29.3871) rotate(-90) scale(26.4287 24.5807)">
<stop stop-color="#FFDD55"/>
<stop offset="0.1" stop-color="#FFDD55"/>
<stop offset="0.5" stop-color="#FF543E"/>
<stop offset="1" stop-color="#C837AB"/>
</radialGradient>
<radialGradient id="paint1_radial_1_1430" cx="0" cy="0" r="1" gradientUnits="userSpaceOnUse" gradientTransform="translate(-3.80012 2.58753) rotate(78.6807) scale(11.8137 48.6966)">
<stop stop-color="#3771C8"/>
<stop offset="0.128" stop-color="#3771C8"/>
<stop offset="1" stop-color="#6600FF" stop-opacity="0"/>
</radialGradient>
</defs>
</svg>
