<svg width="40" height="40" viewBox="0 0 40 40" fill="none" xmlns="http://www.w3.org/2000/svg">
<mask id="mask0_1_1365" style="mask-type:alpha" maskUnits="userSpaceOnUse" x="0" y="0" width="40" height="40">
<circle cx="20" cy="20" r="20" fill="white"/>
</mask>
<g mask="url(#mask0_1_1365)">
<circle cx="20" cy="20" r="22" fill="#C4C4C4"/>
<path d="M11.2461 22.6289V24H6.95117V22.6289H11.2461ZM7.51953 15.4688V24H5.76172V15.4688H7.51953Z" fill="black"/>
<path d="M18.875 19.5352V19.9395C18.875 20.5879 18.7871 21.1699 18.6113 21.6855C18.4355 22.2012 18.1875 22.6406 17.8672 23.0039C17.5469 23.3633 17.1641 23.6387 16.7188 23.8301C16.2773 24.0215 15.7871 24.1172 15.248 24.1172C14.7129 24.1172 14.2227 24.0215 13.7773 23.8301C13.3359 23.6387 12.9531 23.3633 12.6289 23.0039C12.3047 22.6406 12.0527 22.2012 11.873 21.6855C11.6973 21.1699 11.6094 20.5879 11.6094 19.9395V19.5352C11.6094 18.8828 11.6973 18.3008 11.873 17.7891C12.0488 17.2734 12.2969 16.834 12.6172 16.4707C12.9414 16.1074 13.3242 15.8301 13.7656 15.6387C14.2109 15.4473 14.7012 15.3516 15.2363 15.3516C15.7754 15.3516 16.2656 15.4473 16.707 15.6387C17.1523 15.8301 17.5352 16.1074 17.8555 16.4707C18.1797 16.834 18.4297 17.2734 18.6055 17.7891C18.7852 18.3008 18.875 18.8828 18.875 19.5352ZM17.0996 19.9395V19.5234C17.0996 19.0703 17.0586 18.6719 16.9766 18.3281C16.8945 17.9844 16.7734 17.6953 16.6133 17.4609C16.4531 17.2266 16.2578 17.0508 16.0273 16.9336C15.7969 16.8125 15.5332 16.752 15.2363 16.752C14.9395 16.752 14.6758 16.8125 14.4453 16.9336C14.2188 17.0508 14.0254 17.2266 13.8652 17.4609C13.709 17.6953 13.5898 17.9844 13.5078 18.3281C13.4258 18.6719 13.3848 19.0703 13.3848 19.5234V19.9395C13.3848 20.3887 13.4258 20.7871 13.5078 21.1348C13.5898 21.4785 13.7109 21.7695 13.8711 22.0078C14.0312 22.2422 14.2266 22.4199 14.457 22.541C14.6875 22.6621 14.9512 22.7227 15.248 22.7227C15.5449 22.7227 15.8086 22.6621 16.0391 22.541C16.2695 22.4199 16.4629 22.2422 16.6191 22.0078C16.7754 21.7695 16.8945 21.4785 16.9766 21.1348C17.0586 20.7871 17.0996 20.3887 17.0996 19.9395Z" fill="black"/>
<path d="M26.9023 19.541V22.9219C26.7695 23.082 26.5645 23.2559 26.2871 23.4434C26.0098 23.627 25.6523 23.7852 25.2148 23.918C24.7773 24.0508 24.248 24.1172 23.627 24.1172C23.0762 24.1172 22.5742 24.0273 22.1211 23.8477C21.668 23.6641 21.2773 23.3965 20.9492 23.0449C20.625 22.6934 20.375 22.2637 20.1992 21.7559C20.0234 21.2441 19.9355 20.6602 19.9355 20.0039V19.4707C19.9355 18.8145 20.0195 18.2305 20.1875 17.7188C20.3594 17.207 20.6035 16.7754 20.9199 16.4238C21.2363 16.0723 21.6133 15.8047 22.0508 15.6211C22.4883 15.4375 22.9746 15.3457 23.5098 15.3457C24.252 15.3457 24.8613 15.4668 25.3379 15.709C25.8145 15.9473 26.1777 16.2793 26.4277 16.7051C26.6816 17.127 26.8379 17.6113 26.8965 18.1582H25.1914C25.1484 17.8691 25.0664 17.6172 24.9453 17.4023C24.8242 17.1875 24.6504 17.0195 24.4238 16.8984C24.2012 16.7773 23.9121 16.7168 23.5566 16.7168C23.2637 16.7168 23.002 16.7773 22.7715 16.8984C22.5449 17.0156 22.3535 17.1895 22.1973 17.4199C22.041 17.6504 21.9219 17.9355 21.8398 18.2754C21.7578 18.6152 21.7168 19.0098 21.7168 19.459V20.0039C21.7168 20.4492 21.7598 20.8438 21.8457 21.1875C21.9316 21.5273 22.0586 21.8145 22.2266 22.0488C22.3984 22.2793 22.6094 22.4531 22.8594 22.5703C23.1094 22.6875 23.4004 22.7461 23.7324 22.7461C24.0098 22.7461 24.2402 22.7227 24.4238 22.6758C24.6113 22.6289 24.7617 22.5723 24.875 22.5059C24.9922 22.4355 25.082 22.3691 25.1445 22.3066V20.7949H23.5391V19.541H26.9023Z" fill="black"/>
<path d="M35.3281 19.5352V19.9395C35.3281 20.5879 35.2402 21.1699 35.0645 21.6855C34.8887 22.2012 34.6406 22.6406 34.3203 23.0039C34 23.3633 33.6172 23.6387 33.1719 23.8301C32.7305 24.0215 32.2402 24.1172 31.7012 24.1172C31.166 24.1172 30.6758 24.0215 30.2305 23.8301C29.7891 23.6387 29.4062 23.3633 29.082 23.0039C28.7578 22.6406 28.5059 22.2012 28.3262 21.6855C28.1504 21.1699 28.0625 20.5879 28.0625 19.9395V19.5352C28.0625 18.8828 28.1504 18.3008 28.3262 17.7891C28.502 17.2734 28.75 16.834 29.0703 16.4707C29.3945 16.1074 29.7773 15.8301 30.2188 15.6387C30.6641 15.4473 31.1543 15.3516 31.6895 15.3516C32.2285 15.3516 32.7188 15.4473 33.1602 15.6387C33.6055 15.8301 33.9883 16.1074 34.3086 16.4707C34.6328 16.834 34.8828 17.2734 35.0586 17.7891C35.2383 18.3008 35.3281 18.8828 35.3281 19.5352ZM33.5527 19.9395V19.5234C33.5527 19.0703 33.5117 18.6719 33.4297 18.3281C33.3477 17.9844 33.2266 17.6953 33.0664 17.4609C32.9062 17.2266 32.7109 17.0508 32.4805 16.9336C32.25 16.8125 31.9863 16.752 31.6895 16.752C31.3926 16.752 31.1289 16.8125 30.8984 16.9336C30.6719 17.0508 30.4785 17.2266 30.3184 17.4609C30.1621 17.6953 30.043 17.9844 29.9609 18.3281C29.8789 18.6719 29.8379 19.0703 29.8379 19.5234V19.9395C29.8379 20.3887 29.8789 20.7871 29.9609 21.1348C30.043 21.4785 30.1641 21.7695 30.3242 22.0078C30.4844 22.2422 30.6797 22.4199 30.9102 22.541C31.1406 22.6621 31.4043 22.7227 31.7012 22.7227C31.998 22.7227 32.2617 22.6621 32.4922 22.541C32.7227 22.4199 32.916 22.2422 33.0723 22.0078C33.2285 21.7695 33.3477 21.4785 33.4297 21.1348C33.5117 20.7871 33.5527 20.3887 33.5527 19.9395Z" fill="black"/>
</g>
</svg>
