<svg width="24" height="27" viewBox="0 0 24 27" fill="none" xmlns="http://www.w3.org/2000/svg">
<path d="M20.6 0H2.73333C1.22667 0 0 1.22667 0 2.74667V20.7733C0 22.2933 1.22667 23.52 2.73333 23.52H17.8533L17.1467 21.0533L18.8533 22.64L20.4667 24.1333L23.3333 26.6667V2.74667C23.3333 1.22667 22.1067 0 20.6 0ZM15.4533 17.4133C15.4533 17.4133 14.9733 16.84 14.5733 16.3333C16.32 15.84 16.9867 14.7467 16.9867 14.7467C16.44 15.1067 15.92 15.36 15.4533 15.5333C14.7867 15.8133 14.1467 16 13.52 16.1067C12.24 16.3467 11.0667 16.28 10.0667 16.0933C9.30667 15.9467 8.65333 15.7333 8.10667 15.52C7.8 15.4 7.46667 15.2533 7.13333 15.0667C7.09333 15.04 7.05333 15.0267 7.01333 15C6.98667 14.9867 6.97333 14.9733 6.96 14.96C6.72 14.8267 6.58667 14.7333 6.58667 14.7333C6.58667 14.7333 7.22667 15.8 8.92 16.3067C8.52 16.8133 8.02667 17.4133 8.02667 17.4133C5.08 17.32 3.96 15.3867 3.96 15.3867C3.96 11.0933 5.88 7.61333 5.88 7.61333C7.8 6.17333 9.62667 6.21333 9.62667 6.21333L9.76 6.37333C7.36 7.06667 6.25333 8.12 6.25333 8.12C6.25333 8.12 6.54667 7.96 7.04 7.73333C8.46667 7.10667 9.6 6.93333 10.0667 6.89333C10.1467 6.88 10.2133 6.86667 10.2933 6.86667C11.1067 6.76 12.0267 6.73333 12.9867 6.84C14.2533 6.98667 15.6133 7.36 17 8.12C17 8.12 15.9467 7.12 13.68 6.42667L13.8667 6.21333C13.8667 6.21333 15.6933 6.17333 17.6133 7.61333C17.6133 7.61333 19.5333 11.0933 19.5333 15.3867C19.5333 15.3867 18.4 17.32 15.4533 17.4133Z" fill="#CDCDCD"/>
</svg>
