<svg width="38" height="38" viewBox="0 0 38 38" fill="none" xmlns="http://www.w3.org/2000/svg">
<path d="M17.1667 17.1667V9.83335H20.8333V17.1667H28.1667V20.8334H20.8333V28.1667H17.1667V20.8334H9.83332V17.1667H17.1667ZM19 37.3334C8.87449 37.3334 0.666656 29.1255 0.666656 19C0.666656 8.87452 8.87449 0.666687 19 0.666687C29.1255 0.666687 37.3333 8.87452 37.3333 19C37.3333 29.1255 29.1255 37.3334 19 37.3334ZM19 33.6667C22.8898 33.6667 26.6204 32.1215 29.3709 29.3709C32.1214 26.6204 33.6667 22.8899 33.6667 19C33.6667 15.1102 32.1214 11.3797 29.3709 8.62912C26.6204 5.87859 22.8898 4.33335 19 4.33335C15.1101 4.33335 11.3796 5.87859 8.62909 8.62912C5.87856 11.3797 4.33332 15.1102 4.33332 19C4.33332 22.8899 5.87856 26.6204 8.62909 29.3709C11.3796 32.1215 15.1101 33.6667 19 33.6667Z" fill="white"/>
</svg>
