<svg width="28" height="28" viewBox="0 0 28 28" fill="none" xmlns="http://www.w3.org/2000/svg">
<path d="M14 27.3334C21.3638 27.3334 27.3333 21.3639 27.3333 14.0001C27.3333 6.63628 21.3638 0.666748 14 0.666748C6.6362 0.666748 0.666664 6.63628 0.666664 14.0001C0.666664 21.3639 6.6362 27.3334 14 27.3334Z" fill="url(#paint0_linear_1_1444)"/>
<path d="M6.21579 13.8845L15.1946 10.1851C16.0809 9.79972 19.0867 8.56658 19.0867 8.56658C19.0867 8.56658 20.474 8.02708 20.3584 9.33729C20.3198 9.87679 20.0116 11.765 19.7033 13.8074L18.7399 19.8575C18.7399 19.8575 18.6628 20.7438 18.0077 20.898C17.3526 21.0521 16.2736 20.3585 16.0809 20.2043C15.9268 20.0887 13.1907 18.3546 12.1888 17.5068C11.9191 17.2756 11.6108 16.8132 12.2274 16.2737C13.6146 15.002 15.2717 13.4221 16.2736 12.4201C16.736 11.9577 17.1985 10.8787 15.2717 12.1889L9.83814 15.8498C9.83814 15.8498 9.22157 16.2352 8.0655 15.8883C6.90943 15.5415 5.56069 15.0791 5.56069 15.0791C5.56069 15.0791 4.63583 14.5011 6.21579 13.8845Z" fill="white"/>
<defs>
<linearGradient id="paint0_linear_1_1444" x1="18.4455" y1="5.11222" x2="11.7788" y2="20.6667" gradientUnits="userSpaceOnUse">
<stop stop-color="#C4C4C4"/>
<stop offset="1" stop-color="#9B9B9B"/>
</linearGradient>
</defs>
</svg>
