<svg width="28" height="23" viewBox="0 0 28 23" fill="none" xmlns="http://www.w3.org/2000/svg">
<path d="M9.05304 22.0054C19.1164 22.0054 24.6197 13.6684 24.6197 6.43876C24.6197 6.20199 24.6149 5.96629 24.6042 5.73157C25.675 4.9568 26.5991 3.99745 27.3333 2.8985C26.353 3.33429 25.2981 3.62761 24.1915 3.75987C25.321 3.08248 26.1882 2.01108 26.5973 0.733783C25.5233 1.37094 24.3484 1.82006 23.1232 2.06182C22.1248 0.998388 20.7035 0.333252 19.1296 0.333252C16.1082 0.333252 13.6582 2.78342 13.6582 5.8036C13.6582 6.23295 13.7062 6.65057 13.8001 7.0511C9.25295 6.82229 5.22088 4.64523 2.52239 1.33485C2.03638 2.16972 1.78072 3.11866 1.78155 4.0847C1.78155 5.98284 2.74744 7.65852 4.21624 8.63882C3.34744 8.61232 2.49769 8.37765 1.73842 7.95454C1.73761 7.97753 1.73761 7.9999 1.73761 8.02442C1.73761 10.6741 3.6235 12.8863 6.12691 13.3876C5.65672 13.5156 5.17156 13.5804 4.68424 13.5801C4.33913 13.5799 3.99483 13.5469 3.65598 13.4814C4.35252 15.6553 6.37227 17.2372 8.76687 17.2814C6.89432 18.7491 4.53543 19.6233 1.97171 19.6233C1.53064 19.6233 1.09494 19.5982 0.666667 19.5476C3.08802 21.0996 5.96315 22.0052 9.05331 22.0052" fill="#D5D5D5"/>
</svg>
